<?xml version="1.0"?>
<svg xmlns="http://www.w3.org/2000/svg" id="Layer_1" data-name="Layer 1" viewBox="0 0 128 128" width="512" height="512"><title>COFFEE CREAM</title><path d="M70.124,49.334l-.235-.094-.091.236c-1.7,4.421-7.462,4.774-12.552,5.087-3.549.218-7.22.443-9.179,1.946A6.434,6.434,0,0,0,45.882,60.5l-.06.3H82.107l-.082-.313C80.338,54.021,73.14,50.533,70.124,49.334Z" style="fill:#fff"/><path d="M42.153,90.243a10.424,10.424,0,0,0,10.413,10.413H75.434A10.424,10.424,0,0,0,85.847,90.243V62.8H42.153Z" style="fill:#ecbc9d"/><path d="M52.455,40.392A1.25,1.25,0,1,0,54.18,42.2c1.669-1.593,3.995-5.667.85-9.687-2.436-3.113-.4-5.145-.15-5.372a1.25,1.25,0,0,0-1.66-1.87c-1.44,1.268-3.326,4.736-.158,8.783C55.544,37.227,52.774,40.081,52.455,40.392Z" style="fill:#6d4b40"/><path d="M62.492,40.392A1.25,1.25,0,0,0,64.219,42.2c1.668-1.593,3.994-5.667.85-9.687-2.437-3.113-.4-5.145-.15-5.372a1.25,1.25,0,0,0-1.66-1.87c-1.44,1.268-3.326,4.736-.158,8.783C65.582,37.227,62.812,40.081,62.492,40.392Z" style="fill:#6d4b40"/><path d="M72.53,40.392A1.25,1.25,0,0,0,74.257,42.2c1.668-1.593,3.994-5.667.849-9.687-2.437-3.113-.4-5.145-.15-5.372a1.25,1.25,0,0,0-1.66-1.87c-1.44,1.268-3.326,4.736-.158,8.783C75.62,37.227,72.85,40.081,72.53,40.392Z" style="fill:#6d4b40"/><path d="M101.857,100.54H82.777a12.659,12.659,0,0,0,5.171-8.463A13.475,13.475,0,0,0,88.1,65.228V61.8a1.25,1.25,0,0,0-1.25-1.25H84.352c-2.026-9.785-14.26-13.653-14.8-13.818a1.25,1.25,0,0,0-1.6.981c-.644,3.7-4.711,4.226-10.844,4.6-3.888.239-7.909.485-10.413,2.406a8.814,8.814,0,0,0-3.118,5.829H41.153A1.25,1.25,0,0,0,39.9,61.8V90.243a12.646,12.646,0,0,0,5.319,10.3H26.143a1.25,1.25,0,0,0,0,2.5h75.714a1.25,1.25,0,0,0,0-2.5ZM97.831,78.648A11,11,0,0,1,88.1,89.556V67.742A11,11,0,0,1,97.831,78.648ZM48.219,56.708c1.9-1.457,5.532-1.68,9.046-1.9,5.188-.318,11.01-.675,12.767-5.246,2.894,1.151,10.087,4.6,11.752,10.986H46.128A6.183,6.183,0,0,1,48.219,56.708ZM42.4,90.243V63.053H85.6V90.243a10.175,10.175,0,0,1-10.163,10.163H52.566A10.175,10.175,0,0,1,42.4,90.243Z" style="fill:#6d4b40"/></svg>
