<svg xmlns="http://www.w3.org/2000/svg" width="33" height="36" viewBox="0 0 33 36">
  <g id="coffeeIcon" transform="translate(-158 -62.728)">
    <g id="coffee-cup" transform="translate(158 62.728)">
      <g id="Group_2" data-name="Group 2" transform="translate(0)">
        <g id="Group_1" data-name="Group 1">
          <path id="Path_7" data-name="Path 7" d="M259.808,371v-3h-1.269v2.4H256v1.2h3.173A.618.618,0,0,0,259.808,371Z" transform="translate(-238.231 -340.4)"/>
          <path id="Path_8" data-name="Path 8" d="M61.827,97.2H56.115v-.6a.618.618,0,0,0-.635-.6H32.635a.618.618,0,0,0-.635.6v24a1.81,1.81,0,0,0,1.269,1.69V123a1.854,1.854,0,0,0,1.9,1.8H52.942a1.854,1.854,0,0,0,1.9-1.8v-.71a1.81,1.81,0,0,0,1.269-1.69V110.4h5.712a3.094,3.094,0,0,0,3.173-3v-7.2A3.094,3.094,0,0,0,61.827,97.2ZM53.577,123a.618.618,0,0,1-.635.6H35.173a.618.618,0,0,1-.635-.6v-.6H53.577Zm1.269-2.4a.618.618,0,0,1-.635.6H33.9a.618.618,0,0,1-.635-.6V97.2H54.846Zm1.269-19.8h4.442a.618.618,0,0,1,.635.6v4.8a.618.618,0,0,1-.635.6H56.115Zm7.615,6.6a1.854,1.854,0,0,1-1.9,1.8H56.115V108h4.442a1.854,1.854,0,0,0,1.9-1.8v-4.8a1.854,1.854,0,0,0-1.9-1.8H56.115V98.4h5.712a1.854,1.854,0,0,1,1.9,1.8Z" transform="translate(-32 -88.8)"/>
          <path id="Path_9" data-name="Path 9" d="M169.6,6h1.269c0-.247.085-.343.331-.585a1.8,1.8,0,0,0,.2-2.642,1.937,1.937,0,0,0-.2-.19c-.246-.24-.331-.338-.331-.585s.085-.341.331-.583A1.846,1.846,0,0,0,171.885,0h-1.269c0,.245-.085.341-.331.583a1.8,1.8,0,0,0-.2,2.64,1.927,1.927,0,0,0,.2.191c.246.24.331.338.331.585s-.085.343-.331.585A1.849,1.849,0,0,0,169.6,6Z" transform="translate(-158.685)"/>
          <path id="Path_10" data-name="Path 10" d="M122.88,20.8h1.269c0-.145.037-.195.229-.383a1.555,1.555,0,0,0,.159-2.28,1.669,1.669,0,0,0-.159-.15c-.182-.18-.23-.233-.23-.385s.048-.206.23-.385A1.6,1.6,0,0,0,124.962,16h-1.269c0,.152-.048.206-.23.385a1.556,1.556,0,0,0-.158,2.282,1.66,1.66,0,0,0,.158.149c.182.18.23.233.23.385s-.037.195-.229.383A1.6,1.6,0,0,0,122.88,20.8Z" transform="translate(-115.671 -14.8)"/>
          <path id="Path_11" data-name="Path 11" d="M218.88,20.8h1.269c0-.145.037-.195.229-.383a1.555,1.555,0,0,0,.159-2.28,1.669,1.669,0,0,0-.159-.15c-.182-.18-.23-.233-.23-.385s.048-.206.23-.385A1.6,1.6,0,0,0,220.962,16h-1.269c0,.152-.048.206-.23.385a1.556,1.556,0,0,0-.158,2.282,1.665,1.665,0,0,0,.158.149c.182.18.23.233.23.385s-.037.195-.229.383A1.6,1.6,0,0,0,218.88,20.8Z" transform="translate(-204.055 -14.8)"/>
        </g>
      </g>
    </g>
    <g id="coffee-bean" transform="translate(166.319 78.902)">
      <g id="Group_3" data-name="Group 3" transform="translate(0)">
        <path id="Path_12" data-name="Path 12" d="M7.161,4.857a5.992,5.992,0,0,0-1.29-3.231C4.342-.27,2.075-.543.817,1.018s-1.039,4.372.49,6.268a4.114,4.114,0,0,0,2.605,1.6,2.936,2.936,0,0,0,.373.024A2.613,2.613,0,0,0,6.361,7.893,4.236,4.236,0,0,0,7.161,4.857Zm-2.238.962A4.061,4.061,0,0,0,3.29,4.957C1.805,4.452,1.068,2.916.9,1.115a12.345,12.345,0,0,0,1.24,1.864,4.31,4.31,0,0,0,1.811,1C5.4,4.5,6.118,6.024,6.283,7.8A11.049,11.049,0,0,0,4.924,5.819Z" transform="translate(0 -0.005)"/>
      </g>
    </g>
  </g>
</svg>
