<svg xmlns="http://www.w3.org/2000/svg" width="52.472" height="70" viewBox="0 0 52.472 70">
  <g id="Group_8" data-name="Group 8" transform="translate(-145 -297)">
    <g id="medium-cup" transform="translate(134.236 295)">
      <path id="Path_25" data-name="Path 25" d="M50.65,72H23.35a5.237,5.237,0,0,1-5.206-4.847L14.837,22.929a1,1,0,0,1,1-1.075H58.166a1,1,0,0,1,1,1.075L55.855,67.156A5.235,5.235,0,0,1,50.65,72ZM16.912,23.854l3.227,43.153A3.231,3.231,0,0,0,23.35,70h27.3a3.23,3.23,0,0,0,3.211-2.99l3.227-43.156Z"/>
      <path id="Path_26" data-name="Path 26" d="M60.425,23.854H13.575a2.814,2.814,0,0,1-2.811-2.812v-7.82a2.814,2.814,0,0,1,2.811-2.811h46.85a2.814,2.814,0,0,1,2.811,2.811v7.82a2.814,2.814,0,0,1-2.811,2.812ZM13.575,12.411a.812.812,0,0,0-.811.811v7.82a.812.812,0,0,0,.811.812h46.85a.812.812,0,0,0,.811-.812v-7.82a.812.812,0,0,0-.811-.811Z"/>
      <path id="Path_27" data-name="Path 27" d="M57.31,12.411H16.69a1,1,0,0,1-1-1V5.475a3.476,3.476,0,0,1,3.787-3.461L55.149,5.241A3.458,3.458,0,0,1,58.31,8.7v2.709a1,1,0,0,1-1,1Zm-39.62-2H56.31V8.7a1.468,1.468,0,0,0-1.341-1.469L19.3,4.006a1.475,1.475,0,0,0-1.61,1.469Z"/>
    </g>
  </g>
</svg>
