<svg xmlns="http://www.w3.org/2000/svg" width="33" height="36" viewBox="0 0 33 36">
  <g id="drinkIcon" transform="translate(-158 -62.728)">
    <g id="coffee-cup" transform="translate(158 62.728)">
      <g id="Group_2" data-name="Group 2" transform="translate(0)">
        <g id="Group_1" data-name="Group 1">
          <path id="Path_7" data-name="Path 7" d="M259.808,371v-3h-1.269v2.4H256v1.2h3.173A.618.618,0,0,0,259.808,371Z" transform="translate(-238.231 -340.4)"/>
          <path id="Path_8" data-name="Path 8" d="M61.827,97.2H56.115v-.6a.618.618,0,0,0-.635-.6H32.635a.618.618,0,0,0-.635.6v24a1.81,1.81,0,0,0,1.269,1.69V123a1.854,1.854,0,0,0,1.9,1.8H52.942a1.854,1.854,0,0,0,1.9-1.8v-.71a1.81,1.81,0,0,0,1.269-1.69V110.4h5.712a3.094,3.094,0,0,0,3.173-3v-7.2A3.094,3.094,0,0,0,61.827,97.2ZM53.577,123a.618.618,0,0,1-.635.6H35.173a.618.618,0,0,1-.635-.6v-.6H53.577Zm1.269-2.4a.618.618,0,0,1-.635.6H33.9a.618.618,0,0,1-.635-.6V97.2H54.846Zm1.269-19.8h4.442a.618.618,0,0,1,.635.6v4.8a.618.618,0,0,1-.635.6H56.115Zm7.615,6.6a1.854,1.854,0,0,1-1.9,1.8H56.115V108h4.442a1.854,1.854,0,0,0,1.9-1.8v-4.8a1.854,1.854,0,0,0-1.9-1.8H56.115V98.4h5.712a1.854,1.854,0,0,1,1.9,1.8Z" transform="translate(-32 -88.8)"/>
          <path id="Path_9" data-name="Path 9" d="M169.6,6h1.269c0-.247.085-.343.331-.585a1.8,1.8,0,0,0,.2-2.642,1.937,1.937,0,0,0-.2-.19c-.246-.24-.331-.338-.331-.585s.085-.341.331-.583A1.846,1.846,0,0,0,171.885,0h-1.269c0,.245-.085.341-.331.583a1.8,1.8,0,0,0-.2,2.64,1.927,1.927,0,0,0,.2.191c.246.24.331.338.331.585s-.085.343-.331.585A1.849,1.849,0,0,0,169.6,6Z" transform="translate(-158.685)"/>
          <path id="Path_10" data-name="Path 10" d="M122.88,20.8h1.269c0-.145.037-.195.229-.383a1.555,1.555,0,0,0,.159-2.28,1.669,1.669,0,0,0-.159-.15c-.182-.18-.23-.233-.23-.385s.048-.206.23-.385A1.6,1.6,0,0,0,124.962,16h-1.269c0,.152-.048.206-.23.385a1.556,1.556,0,0,0-.158,2.282,1.66,1.66,0,0,0,.158.149c.182.18.23.233.23.385s-.037.195-.229.383A1.6,1.6,0,0,0,122.88,20.8Z" transform="translate(-115.671 -14.8)"/>
          <path id="Path_11" data-name="Path 11" d="M218.88,20.8h1.269c0-.145.037-.195.229-.383a1.555,1.555,0,0,0,.159-2.28,1.669,1.669,0,0,0-.159-.15c-.182-.18-.23-.233-.23-.385s.048-.206.23-.385A1.6,1.6,0,0,0,220.962,16h-1.269c0,.152-.048.206-.23.385a1.556,1.556,0,0,0-.158,2.282,1.665,1.665,0,0,0,.158.149c.182.18.23.233.23.385s-.037.195-.229.383A1.6,1.6,0,0,0,218.88,20.8Z" transform="translate(-204.055 -14.8)"/>
        </g>
      </g>
    </g>
    <g id="candy" transform="translate(165.071 77.721)">
      <g id="Group_7" data-name="Group 7" transform="translate(-0.001 0.007)">
        <path id="Path_19" data-name="Path 19" d="M10,2.089c-.332-.5-.932-.356-1.291-.272-.054.013-.121.028-.174.038A2.971,2.971,0,0,1,8.5,1.4,1.636,1.636,0,0,0,8.167.222.846.846,0,0,0,7.524.008c-.7.031-1.308.807-1.6,1.562a3.43,3.43,0,0,0-.137.442,2.951,2.951,0,0,0-2.907.775,3.059,3.059,0,0,0-.731,3.055,3.2,3.2,0,0,0-.6.174C.8,6.313.031,6.932,0,7.647a.876.876,0,0,0,.21.654,1.577,1.577,0,0,0,1.161.337,2.838,2.838,0,0,1,.447.036c-.009.054-.025.121-.038.177-.083.364-.222.973.268,1.31a.619.619,0,0,0,.355.106,1.038,1.038,0,0,0,.5-.144,2.671,2.671,0,0,0,.748-.655,3.2,3.2,0,0,0,.715-1.587,2.95,2.95,0,0,0,2.727-.819,3.051,3.051,0,0,0,.827-2.656,3.173,3.173,0,0,0,1.4-.7,2.668,2.668,0,0,0,.641-.757A.806.806,0,0,0,10,2.089Zm-6.662,6.8a2.5,2.5,0,0,1-.622.645c-.205.138-.317.137-.333.129-.141-.1-.1-.352-.022-.675.062-.274.121-.533-.06-.718a1.3,1.3,0,0,0-.911-.235C1.11,8.026.761,8.016.646,7.89.632,7.874.588,7.826.594,7.674c.015-.36.53-.841,1.172-1.094A2.507,2.507,0,0,1,2.4,6.419a3.012,3.012,0,0,0,.483.644,2.975,2.975,0,0,0,.9.628A2.4,2.4,0,0,1,3.338,8.887ZM6.672,6.636a2.357,2.357,0,0,1-3.369,0,2.448,2.448,0,0,1,0-3.421,2.357,2.357,0,0,1,3.369,0,2.446,2.446,0,0,1,0,3.421Zm2.716-3.88a2.447,2.447,0,0,1-.619.624,2.457,2.457,0,0,1-1.011.441A3.014,3.014,0,0,0,6.351,2.237a2.685,2.685,0,0,1,.128-.448C6.727,1.144,7.2.627,7.549.611c.151-.007.2.038.213.053.123.116.134.471.142.755a1.352,1.352,0,0,0,.231.925c.182.184.437.124.707.061.318-.075.569-.12.664.022C9.515,2.444,9.517,2.553,9.387,2.755Z" transform="translate(0.001 -0.007)"/>
      </g>
    </g>
  </g>
</svg>
