<svg xmlns="http://www.w3.org/2000/svg" width="11.145" height="11.625" viewBox="0 0 11.145 11.625">
  <g id="ice0" transform="translate(-197.291 -273.141)">
    <g id="ice-crystal" transform="translate(179.74 275)">
      <path id="Path_22" data-name="Path 22" d="M26.85,3.7l-1.4.341-.538-.283V3.231l.532-.279,1.4.343a.357.357,0,0,0,.085.01.323.323,0,0,0,.315-.221.3.3,0,0,0-.231-.364l-.768-.188.708-.371a.284.284,0,0,0,.12-.406.343.343,0,0,0-.445-.11l-.71.372.206-.7A.3.3,0,0,0,25.9.952a.332.332,0,0,0-.4.21l-.374,1.273-.535.28-.507-.268V1.887L25.11.951a.28.28,0,0,0,0-.421.348.348,0,0,0-.461,0l-.565.515V.3a.327.327,0,0,0-.652,0v.744L22.872.53a.348.348,0,0,0-.461,0,.279.279,0,0,0,0,.421l1.021.932V2.45l-.5.265-.535-.28L22.02,1.162a.331.331,0,0,0-.4-.21.3.3,0,0,0-.231.364l.206.7-.71-.372a.343.343,0,0,0-.445.11.284.284,0,0,0,.121.406l.708.371-.768.188a.3.3,0,0,0-.231.364.323.323,0,0,0,.315.221.358.358,0,0,0,.085-.01l1.4-.343.531.278v.532l-.538.284-1.4-.341a.332.332,0,0,0-.4.21.3.3,0,0,0,.231.364l.765.187-.706.372a.284.284,0,0,0-.119.406.332.332,0,0,0,.283.149.345.345,0,0,0,.163-.04l.71-.374-.207.7a.3.3,0,0,0,.231.364.351.351,0,0,0,.085.01.323.323,0,0,0,.315-.221L22.4,4.559l.534-.281.5.265v.575l-1.021.932a.279.279,0,0,0,0,.421.349.349,0,0,0,.461,0l.56-.511V6.7a.327.327,0,0,0,.652,0V5.955l.565.515a.349.349,0,0,0,.461,0,.279.279,0,0,0,0-.421l-1.026-.936V4.545l.507-.267.534.281L25.5,5.838a.323.323,0,0,0,.315.221.353.353,0,0,0,.085-.01.3.3,0,0,0,.231-.364l-.207-.7.71.374a.345.345,0,0,0,.163.04.332.332,0,0,0,.282-.149.284.284,0,0,0-.119-.406l-.706-.372.765-.187a.3.3,0,0,0,.231-.364A.331.331,0,0,0,26.85,3.7Zm-2.585.058-.5.266-.5-.266V3.23l.5-.266.5.266Z" transform="translate(0 0)"/>
    </g>
    <path id="Path_24" data-name="Path 24" d="M-5.424,13.558,3.338,4.393,5.36,2.278" transform="translate(202.896 271.036)" fill="none" stroke="#000" stroke-width="0.5"/>
  </g>
</svg>
