<svg xmlns="http://www.w3.org/2000/svg" width="33" height="36" viewBox="0 0 33 36">
  <g id="teaIcon" transform="translate(4 20.999)">
    <g id="Group_6" data-name="Group 6" transform="translate(4 -5.999)">
      <path id="Path_18" data-name="Path 18" d="M8.853,3a.4.4,0,0,0-.278-.311,5.184,5.184,0,0,0-3.533.487A6.242,6.242,0,0,0,2.853.062a.337.337,0,0,0-.387,0,6.183,6.183,0,0,0,0,9.883A.339.339,0,0,0,2.6,10a4.689,4.689,0,0,0,1.092.118A4.956,4.956,0,0,0,7.456,8.441,6.624,6.624,0,0,0,8.853,3ZM2.666,2.795a.4.4,0,0,0-.373.421v.847L1.962,3.7a.344.344,0,0,0-.528.01.46.46,0,0,0,.009.6l.85.928v.859l-.309-.4a.344.344,0,0,0-.527-.04.46.46,0,0,0-.035.594l.857,1.107,0,.014c0,.021-.007.043-.01.064q-.017.119-.029.235c0,.019,0,.037-.005.056-.006.06-.011.119-.015.177,0,.025,0,.049-.005.074,0,.056-.006.111-.009.166,0,.018,0,.037,0,.055q0,.1,0,.2c0,.019,0,.037,0,.056,0,.049,0,.1,0,.143,0,.011,0,.022,0,.032A5.31,5.31,0,0,1,.747,5,5.419,5.419,0,0,1,2.661.935,5.511,5.511,0,0,1,4.384,3.608l0,0c-.108.083-.211.173-.313.266l-.076.07c-.1.1-.2.194-.292.3-.074.083-.144.167-.212.251l-.059.076q-.073.1-.141.191l-.052.074c-.058.086-.114.172-.167.259l-.014.024-.017.03V3.216A.4.4,0,0,0,2.666,2.795ZM6.932,7.841a4.348,4.348,0,0,1-3.58,1.413c.3-.44.774-1.087,1.349-1.778a6.187,6.187,0,0,1,1.878-.511.41.41,0,0,0,.339-.457.387.387,0,0,0-.4-.382,6.347,6.347,0,0,0-.688.108A11.986,11.986,0,0,1,7.056,5.143a.456.456,0,0,0,.1-.585.348.348,0,0,0-.518-.114A13.945,13.945,0,0,0,4.9,6.053c0-.09-.007-.182-.015-.279A.387.387,0,0,0,4.472,5.4a.411.411,0,0,0-.334.461,2.936,2.936,0,0,1-.121,1.206c-.432.528-.8,1.023-1.077,1.416,0-.007,0-.013,0-.02s0-.019,0-.028q0-.1,0-.21c0-.01,0-.019,0-.029,0-.076.007-.154.014-.235,0-.016,0-.032,0-.048.007-.082.015-.165.026-.251l0-.028c.009-.068.02-.139.032-.209a.463.463,0,0,0,.015-.091q.023-.126.052-.256L3.1,7.023c.022-.092.046-.185.074-.279l.007-.022q.04-.135.089-.27L3.289,6.4q.052-.14.113-.28l.025-.055c.043-.1.09-.192.141-.288l.007-.011c.05-.093.1-.185.162-.277l.031-.05q.089-.137.19-.272L4,5.12c.072-.093.147-.185.228-.275A4.477,4.477,0,0,1,4.6,4.473l.047-.039c.051-.043.1-.086.154-.127q.1-.08.209-.152h0a4.52,4.52,0,0,1,3.158-.686A5.655,5.655,0,0,1,6.932,7.841Z" transform="translate(0 -0.001)"/>
    </g>
    <g id="coffee-cup" transform="translate(-36 -20.999)">
      <g id="Group_5" data-name="Group 5" transform="translate(32)">
        <g id="Group_4" data-name="Group 4" transform="translate(0)">
          <path id="Path_13" data-name="Path 13" d="M259.808,371v-3h-1.269v2.4H256v1.2h3.173A.618.618,0,0,0,259.808,371Z" transform="translate(-238.231 -340.4)"/>
          <path id="Path_14" data-name="Path 14" d="M61.827,97.2H56.115v-.6a.618.618,0,0,0-.635-.6H32.635a.618.618,0,0,0-.635.6v24a1.81,1.81,0,0,0,1.269,1.69V123a1.854,1.854,0,0,0,1.9,1.8H52.942a1.854,1.854,0,0,0,1.9-1.8v-.71a1.81,1.81,0,0,0,1.269-1.69V110.4h5.712a3.094,3.094,0,0,0,3.173-3v-7.2A3.094,3.094,0,0,0,61.827,97.2ZM53.577,123a.618.618,0,0,1-.635.6H35.173a.618.618,0,0,1-.635-.6v-.6H53.577Zm1.269-2.4a.618.618,0,0,1-.635.6H33.9a.618.618,0,0,1-.635-.6V97.2H54.846Zm1.269-19.8h4.442a.618.618,0,0,1,.635.6v4.8a.618.618,0,0,1-.635.6H56.115Zm7.615,6.6a1.854,1.854,0,0,1-1.9,1.8H56.115V108h4.442a1.854,1.854,0,0,0,1.9-1.8v-4.8a1.854,1.854,0,0,0-1.9-1.8H56.115V98.4h5.712a1.854,1.854,0,0,1,1.9,1.8Z" transform="translate(-32 -88.8)"/>
          <path id="Path_15" data-name="Path 15" d="M169.6,6h1.269c0-.247.085-.343.331-.585a1.8,1.8,0,0,0,.2-2.642,1.937,1.937,0,0,0-.2-.19c-.246-.24-.331-.338-.331-.585s.085-.341.331-.583A1.847,1.847,0,0,0,171.885,0h-1.269c0,.245-.085.341-.331.583a1.8,1.8,0,0,0-.2,2.64,1.929,1.929,0,0,0,.2.191c.246.24.331.338.331.585s-.085.343-.331.585A1.849,1.849,0,0,0,169.6,6Z" transform="translate(-158.685)"/>
          <path id="Path_16" data-name="Path 16" d="M122.88,20.8h1.269c0-.145.037-.195.229-.383a1.555,1.555,0,0,0,.159-2.28,1.669,1.669,0,0,0-.159-.15c-.182-.18-.23-.233-.23-.385s.048-.206.23-.385A1.6,1.6,0,0,0,124.962,16h-1.269c0,.152-.048.206-.23.385a1.556,1.556,0,0,0-.158,2.282,1.663,1.663,0,0,0,.158.149c.182.18.23.233.23.385s-.037.195-.229.383A1.6,1.6,0,0,0,122.88,20.8Z" transform="translate(-115.671 -14.8)"/>
          <path id="Path_17" data-name="Path 17" d="M218.88,20.8h1.269c0-.145.037-.195.229-.383a1.555,1.555,0,0,0,.159-2.28,1.669,1.669,0,0,0-.159-.15c-.182-.18-.23-.233-.23-.385s.048-.206.23-.385A1.6,1.6,0,0,0,220.962,16h-1.269c0,.152-.048.206-.23.385a1.556,1.556,0,0,0-.158,2.282,1.663,1.663,0,0,0,.158.149c.182.18.23.233.23.385s-.037.195-.229.383A1.6,1.6,0,0,0,218.88,20.8Z" transform="translate(-204.055 -14.8)"/>
        </g>
      </g>
    </g>
  </g>
</svg>
